<?xml version="1.0" standalone="no"?>
<!DOCTYPE svg PUBLIC "-//W3C//DTD SVG 20010904//EN"
 "http://www.w3.org/TR/2001/REC-SVG-20010904/DTD/svg10.dtd">
<svg version="1.0" xmlns="http://www.w3.org/2000/svg"
 width="96.000000pt" height="96.000000pt" viewBox="0 0 96.000000 96.000000"
 preserveAspectRatio="xMidYMid meet">

<g transform="translate(0.000000,96.000000) scale(0.100000,-0.100000)"
fill="#000000" stroke="none">
<path d="M427 891 c-43 -9 -81 -34 -111 -75 -18 -24 -21 -43 -22 -152 -1 -108
1 -128 17 -148 11 -14 19 -29 19 -35 0 -7 9 -29 20 -51 39 -77 22 -107 -90
-154 -111 -47 -160 -99 -160 -171 l0 -25 380 0 380 0 0 25 c0 72 -49 124 -160
171 -85 36 -110 59 -110 100 0 18 4 35 9 39 5 3 15 22 22 43 6 20 19 45 27 55
12 13 17 47 19 138 4 144 -4 164 -80 207 -62 35 -105 44 -160 33z m103 -46
c14 -8 37 -19 53 -26 15 -6 32 -19 37 -29 13 -24 13 -115 0 -160 -7 -23 -7
-36 0 -38 15 -5 12 -50 -3 -59 -7 -4 -21 -29 -31 -55 -30 -81 -102 -114 -159
-72 -28 21 -67 83 -67 107 0 8 -5 17 -12 19 -9 3 -13 40 -15 120 -3 106 -1
118 20 149 35 53 124 75 177 44z m-59 -493 c20 -2 45 1 56 6 16 9 20 6 29 -24
10 -29 8 -39 -6 -57 -15 -17 -29 -22 -69 -22 -67 0 -93 24 -84 78 5 30 9 37
22 31 9 -4 32 -9 52 -12z m-22 -137 c44 -9 88 3 124 35 l32 28 90 -43 c64 -31
95 -52 108 -73 9 -17 17 -33 17 -36 0 -3 -153 -6 -340 -6 -187 0 -340 3 -340
6 0 3 8 19 18 36 12 21 43 42 107 73 l90 43 32 -28 c17 -16 45 -31 62 -35z"/>
</g>
</svg>
